HIERARCHY
ROOT Hips
{
  OFFSET 1.44925e-005 102.336 -0.101585
  CHANNELS 6 Xposition Yposition Zposition Zrotation Xrotation Yrotation
  JOINT LeftUpLeg
  {
    OFFSET 8.9458 -8.66707 0.101652
    CHANNELS 3 Zrotation Xrotation Yrotation
    JOINT LeftLeg
    {
      OFFSET 0 -44.4227 1.3727
      CHANNELS 3 Zrotation Xrotation Yrotation
      JOINT LeftFoot
      {
        OFFSET -0.253549 -42.0924 -1.46059
        CHANNELS 3 Zrotation Xrotation Yrotation
        JOINT LeftToes
        {
          OFFSET -0.04 -4.41509 8.4991
          CHANNELS 3 Zrotation Xrotation Yrotation
          End Site
          {
            OFFSET 0.08 -0.047448 9.77979
          }
        }
      }
    }
  }
  JOINT Spine
  {
    OFFSET 0 11.8905 0
    CHANNELS 3 Zrotation Xrotation Yrotation
    JOINT Spine1
    {
      OFFSET 0 25.6574 0.127663
      CHANNELS 3 Zrotation Xrotation Yrotation
      JOINT RightShoulder
      {
        OFFSET -8.99 -0.362252 -0.22
        CHANNELS 3 Zrotation Xrotation Yrotation
        JOINT RightArm
        {
          OFFSET -10.2827 -0.00338 0.322123
          CHANNELS 3 Zrotation Xrotation Yrotation
          JOINT RightForeArm
          {
            OFFSET -26.364 0.099144 -1.42434
            CHANNELS 3 Zrotation Xrotation Yrotation
            JOINT RightHand
            {
              OFFSET -22.0324 0.085362 1.02216
              CHANNELS 3 Zrotation Xrotation Yrotation
              End Site
              {
                OFFSET -13.3284 -0.6 1.50291
              }
            }
          }
        }
      }
      JOINT LeftShoulder1
      {
        OFFSET 8.99 -0.362252 -0.22
        CHANNELS 3 Zrotation Xrotation Yrotation
        JOINT LeftArm
        {
          OFFSET 10.2827 -0.00337999 0.322123
          CHANNELS 3 Zrotation Xrotation Yrotation
          JOINT LeftForeArm
          {
            OFFSET 26.2597 0.099144 -1.42434
            CHANNELS 3 Zrotation Xrotation Yrotation
            JOINT LeftHand
            {
              OFFSET 22.0902 0.085362 1.02216
              CHANNELS 3 Zrotation Xrotation Yrotation
              End Site
              {
                OFFSET 13.419 -0.6 1.50291
              }
            }
          }
        }
      }
      JOINT Head
      {
        OFFSET 0 8.73416 0.011341
        CHANNELS 3 Zrotation Xrotation Yrotation
        End Site
        {
          OFFSET -0.29 12.7742 2.51395
        }
      }
    }
  }
  JOINT RightUpLeg
  {
    OFFSET -8.9458 -8.66707 0.101652
    CHANNELS 3 Zrotation Xrotation Yrotation
    JOINT RightLeg
    {
      OFFSET 0 -44.4227 1.3727
      CHANNELS 3 Zrotation Xrotation Yrotation
      JOINT RightFoot
      {
        OFFSET 0.253549 -42.0924 -1.46059
        CHANNELS 3 Zrotation Xrotation Yrotation
        JOINT RightToes
        {
          OFFSET 0.04 -4.41509 8.4991
          CHANNELS 3 Zrotation Xrotation Yrotation
          End Site
          {
            OFFSET -0.08 -0.137448 9.77979
          }
        }
      }
    }
  }
}
MOTION
Frames:	10
Frame Time:	0.0333333
43.3865 97.4002 4.93139 -6.51535 5.0531 -90.0912 3.46837 4.96503 0.710989 1.48944 57.5363 14.285 -10.2548 -0.137886 0.671377 -1.35538e-009 8.75213e-006 -1.47543e-008 10.1194 11.3438 -2.6262 -0.192991 -1.91022 -0.834854 37.0247 1.7466 0.0395746 38.1471 -21.7742 2.77482 8.08383 39.5379 7.40785 -9.08622 9.46462 0.629084 -44.6725 3.53399 -3.3767 -25.7824 -19.2647 9.63506 -7.33006 43.1468 -9.20768 5.82328 9.61819 -0.917488 0.619621 -10.1927 -3.1516 8.56047 -16.122 -2.04804 -0.0093588 28.7684 -13.885 -0.00605267 -11.9747 -0.199589 0.0462048 0.000530889 0.662642 
40.5419 97.6094 4.65029 -6.8607 5.52352 -89.6145 3.87515 -0.0941325 -0.880012 1.94642 65.1872 14.5232 -8.73949 1.03212 0.646656 -1.35538e-009 8.75213e-006 -1.47543e-008 11.2647 11.6155 -2.60432 -0.32295 -1.7023 -0.487643 36.875 1.74382 0.0460558 38.2585 -19.1226 3.77184 7.39412 36.7518 9.40504 -9.51224 9.41195 1.04312 -44.9507 3.56038 -3.38685 -26.2122 -17.8086 10.6224 -6.77304 42.6413 -10.1481 5.82328 9.61819 -0.917488 0.980309 -10.2861 -3.88151 9.02785 -13.9291 -2.14485 0.307982 29.0253 -14.1556 0.735155 -14.0506 -0.172573 0.0462048 0.000530889 0.662642 
37.6672 97.9962 4.37313 -7.21343 5.31391 -89.777 3.41093 -4.49854 -1.65402 2.42271 69.7932 14.8676 -7.98477 -2.13735 0.384065 -1.35538e-009 8.75213e-006 -1.47543e-008 11.3974 11.8091 -2.26007 -0.631703 -1.58108 0.00945673 36.6175 1.74014 0.0590585 38.5574 -16.3392 5.23846 6.8204 35.0637 10.8843 -9.88758 9.36098 1.43502 -45.0512 3.57461 -3.39953 -26.9801 -15.9908 11.7558 -5.408 40.2637 -12.3126 5.82328 9.61819 -0.917488 1.31085 -10.1287 -4.34796 8.82273 -11.1845 -2.13663 0.649382 28.4035 -14.0757 1.17047 -15.9439 -0.141446 0.0462048 0.000530889 0.662642 
34.8098 98.4178 4.09673 -7.44097 4.75877 -90.1914 2.53267 -8.57221 -2.33819 2.67389 71.3808 15.0898 -7.17745 -5.84675 0.134606 -1.35538e-009 8.75213e-006 -1.47543e-008 11.2018 11.9008 -1.81996 -1.21764 -1.66708 0.56114 36.4622 1.73417 0.0584989 38.8465 -13.4895 6.65542 6.27149 33.3031 12.2658 -10.0297 9.33996 1.59587 -44.8324 3.55161 -3.3873 -27.943 -14.0486 12.7513 -4.1171 37.0332 -14.5253 5.82328 9.61819 -0.917488 1.49182 -9.60209 -4.74064 8.2856 -8.43459 -2.08079 0.952285 27.4067 -13.8373 1.09214 -17.3272 -0.142581 0.0462048 0.000530889 0.662642 
31.986 98.7958 3.83956 -7.61255 4.13165 -90.6318 1.46695 -12.181 -3.36913 2.54755 70.2003 15.5505 -6.18139 -8.4345 -0.0072159 -1.35538e-009 8.75213e-006 -1.47543e-008 11.0006 11.984 -1.3987 -1.98794 -1.93329 1.05121 36.3029 1.7264 0.0539567 39.1284 -10.4025 7.77083 5.66155 30.4739 13.9562 -9.98421 9.34962 1.50675 -44.6479 3.52931 -3.37126 -28.7058 -11.9281 13.3365 -3.12611 34.0167 -16.4116 5.82328 9.61819 -0.917488 1.41589 -8.93474 -5.1502 7.66687 -5.7573 -2.28111 1.08609 26.299 -13.2569 0.777741 -18.4249 -0.169205 0.0462048 0.000530889 0.662642 
29.2099 99.0921 3.59925 -7.79186 3.46068 -91.0418 0.373518 -15.0247 -4.57589 2.19158 66.4488 16.3062 -5.88444 -10.6674 -0.109567 -1.35538e-009 8.75213e-006 -1.47543e-008 10.4976 12.0886 -1.02354 -2.53206 -2.16075 1.34973 35.8996 1.71676 0.0664016 39.5661 -7.34722 8.79694 5.02394 27.2101 15.821 -9.95474 9.36597 1.31821 -44.8401 3.54916 -3.38141 -29.0304 -9.83642 13.5065 -2.29467 31.6102 -18.0447 5.82328 9.61819 -0.917488 1.08733 -8.48186 -5.38777 6.98786 -3.08731 -2.77826 1.05892 25.1577 -12.4526 0.535644 -19.6249 -0.194759 0.0462048 0.000530889 0.662642 
26.4802 99.3126 3.37028 -7.88645 2.76489 -91.5158 -0.440072 -17.1191 -5.44015 1.78576 60.2456 16.819 -6.64047 -12.2083 -0.208727 -1.35538e-009 8.75213e-006 -1.47543e-008 9.69486 12.0806 -0.661251 -2.93247 -2.20428 1.51325 35.435 1.70975 0.088878 40.0379 -4.71765 9.90291 4.44865 24.5462 17.5159 -9.99969 9.37208 1.21359 -45.2229 3.59174 -3.40724 -28.9492 -8.34499 13.2741 -1.709 30.0207 -19.2222 5.82328 9.61819 -0.917488 0.692305 -8.39501 -5.34655 6.27223 -0.517839 -3.3163 0.937168 23.9372 -11.5343 0.376324 -20.7993 -0.21599 0.0462048 0.000530889 0.662642 
23.7968 99.5138 3.15951 -7.80406 2.1189 -92.1071 -0.786853 -18.5424 -5.69495 1.423 51.8352 16.9525 -7.55151 -11.8887 -0.225779 -1.35538e-009 8.75213e-006 -1.47543e-008 8.97704 11.9678 -0.299949 -3.70815 -2.23543 1.68612 35.3285 1.7096 0.0972633 40.2286 -2.64103 10.9153 3.99247 22.7876 18.8691 -9.98135 9.37292 1.23401 -45.3559 3.6053 -3.41367 -28.6636 -7.78439 12.6351 -1.52748 29.4317 -19.6379 5.82328 9.61819 -0.917488 0.451201 -8.51869 -5.16436 5.61331 1.91876 -3.66529 0.758198 22.4383 -10.5096 0.187172 -21.6228 -0.242573 0.0462048 0.000530889 0.662642 
21.1628 99.6556 2.97752 -7.60722 1.6552 -92.643 -0.732765 -19.1877 -5.60357 1.1778 41.8576 17.0775 -7.77794 -10.6986 -0.160574 -1.35538e-009 8.75213e-006 -1.47543e-008 8.50464 11.9594 -0.0324779 -4.73503 -2.46305 1.83283 35.5543 1.71234 0.0880655 40.1444 -1.08433 11.6097 3.66433 21.7845 19.8513 -9.87184 9.37458 1.26764 -45.1625 3.57959 -3.39274 -28.3713 -8.01451 11.7503 -1.65654 29.6962 -19.3974 5.82328 9.61819 -0.917488 0.391632 -8.6357 -4.9722 5.16243 4.24149 -3.81921 0.59863 20.7965 -9.68866 0.106515 -22.2777 -0.256485 0.0462048 0.000530889 0.662642 
18.5293 99.7043 2.81588 -7.41823 1.38658 -92.9864 -0.513112 -19.0436 -5.34243 1.03779 31.1563 17.1297 -7.30073 -10.4104 -0.129822 -1.35538e-009 8.75213e-006 -1.47543e-008 7.86362 12.0633 0.135218 -5.30999 -2.69064 1.84985 35.6795 1.71633 0.0865272 40.085 0.0534641 12.0452 3.53089 21.3002 20.3496 -9.88719 9.37471 1.25627 -44.9687 3.55471 -3.37327 -28.1433 -8.58002 10.8745 -1.83453 30.1963 -19.0182 5.82328 9.61819 -0.917488 0.388791 -8.75616 -4.7245 4.90052 6.56952 -3.91354 0.536179 19.1467 -9.29042 0.222647 -22.9297 -0.244528 0.0462048 0.000530889 0.662642 
